<svg width="36" height="36" viewBox="0 0 36 36" fill="none" xmlns="http://www.w3.org/2000/svg">
<path d="M7.5 28.5H9.6375L24.3 13.8375L22.1625 11.7L7.5 26.3625V28.5ZM4.5 31.5V25.125L24.3 5.3625C24.6 5.0875 24.9312 4.875 25.2938 4.725C25.6562 4.575 26.0375 4.5 26.4375 4.5C26.8375 4.5 27.225 4.575 27.6 4.725C27.975 4.875 28.3 5.1 28.575 5.4L30.6375 7.5C30.9375 7.775 31.1563 8.1 31.2938 8.475C31.4313 8.85 31.5 9.225 31.5 9.6C31.5 10 31.4313 10.3812 31.2938 10.7437C31.1563 11.1062 30.9375 11.4375 30.6375 11.7375L10.875 31.5H4.5ZM23.2125 12.7875L22.1625 11.7L24.3 13.8375L23.2125 12.7875Z" fill="#1D1B20"/>
</svg>
