<svg width="33" height="32" viewBox="0 0 33 32" fill="none" xmlns="http://www.w3.org/2000/svg">
<path d="M13.5 28C12.3667 28 11.3889 27.6056 10.5667 26.8167C9.74444 26.0278 9.27778 25.0778 9.16667 23.9667C7.83333 23.7889 6.72222 23.2 5.83333 22.2C4.94444 21.2 4.5 20.0222 4.5 18.6667C4.5 18.2 4.56111 17.7389 4.68333 17.2833C4.80556 16.8278 4.98889 16.4 5.23333 16C4.98889 15.6 4.80556 15.1778 4.68333 14.7333C4.56111 14.2889 4.5 13.8222 4.5 13.3333C4.5 11.9778 4.94444 10.8056 5.83333 9.81667C6.72222 8.82778 7.82222 8.24444 9.13333 8.06667C9.2 6.93333 9.65556 5.97222 10.5 5.18333C11.3444 4.39444 12.3444 4 13.5 4C14.0778 4 14.6167 4.11111 15.1167 4.33333C15.6167 4.55556 16.0778 4.85556 16.5 5.23333C16.9 4.85556 17.3556 4.55556 17.8667 4.33333C18.3778 4.11111 18.9222 4 19.5 4C20.6556 4 21.65 4.38889 22.4833 5.16667C23.3167 5.94444 23.7667 6.9 23.8333 8.03333C25.1444 8.21111 26.25 8.8 27.15 9.8C28.05 10.8 28.5 11.9778 28.5 13.3333C28.5 13.8222 28.4389 14.2889 28.3167 14.7333C28.1944 15.1778 28.0111 15.6 27.7667 16C28.0111 16.4 28.1944 16.8278 28.3167 17.2833C28.4389 17.7389 28.5 18.2 28.5 18.6667C28.5 20.0444 28.05 21.2278 27.15 22.2167C26.25 23.2056 25.1333 23.7889 23.8 23.9667C23.6889 25.0778 23.2278 26.0278 22.4167 26.8167C21.6056 27.6056 20.6333 28 19.5 28C18.9444 28 18.4056 27.8944 17.8833 27.6833C17.3611 27.4722 16.9 27.1778 16.5 26.8C16.0778 27.1778 15.6111 27.4722 15.1 27.6833C14.5889 27.8944 14.0556 28 13.5 28ZM17.8333 8.33333V23.6667C17.8333 24.1333 17.9944 24.5278 18.3167 24.85C18.6389 25.1722 19.0333 25.3333 19.5 25.3333C19.9444 25.3333 20.3278 25.1556 20.65 24.8C20.9722 24.4444 21.1444 24.0444 21.1667 23.6C20.7 23.4222 20.2722 23.1833 19.8833 22.8833C19.4944 22.5833 19.1444 22.2222 18.8333 21.8C18.6111 21.4889 18.5278 21.1556 18.5833 20.8C18.6389 20.4444 18.8222 20.1556 19.1333 19.9333C19.4444 19.7111 19.7778 19.6278 20.1333 19.6833C20.4889 19.7389 20.7778 19.9222 21 20.2333C21.2444 20.5889 21.5556 20.8611 21.9333 21.05C22.3111 21.2389 22.7222 21.3333 23.1667 21.3333C23.9 21.3333 24.5278 21.0722 25.05 20.55C25.5722 20.0278 25.8333 19.4 25.8333 18.6667C25.8333 18.5556 25.8278 18.4444 25.8167 18.3333C25.8056 18.2222 25.7778 18.1111 25.7333 18C25.3556 18.2222 24.95 18.3889 24.5167 18.5C24.0833 18.6111 23.6333 18.6667 23.1667 18.6667C22.7889 18.6667 22.4722 18.5389 22.2167 18.2833C21.9611 18.0278 21.8333 17.7111 21.8333 17.3333C21.8333 16.9556 21.9611 16.6389 22.2167 16.3833C22.4722 16.1278 22.7889 16 23.1667 16C23.9 16 24.5278 15.7389 25.05 15.2167C25.5722 14.6944 25.8333 14.0667 25.8333 13.3333C25.8333 12.6 25.5722 11.9778 25.05 11.4667C24.5278 10.9556 23.9 10.6889 23.1667 10.6667C22.9222 11.0667 22.6056 11.4167 22.2167 11.7167C21.8278 12.0167 21.4 12.2556 20.9333 12.4333C20.5778 12.5667 20.2333 12.5556 19.9 12.4C19.5667 12.2444 19.3444 11.9889 19.2333 11.6333C19.1222 11.2778 19.1389 10.9333 19.2833 10.6C19.4278 10.2667 19.6778 10.0444 20.0333 9.93333C20.3667 9.82222 20.6389 9.62222 20.85 9.33333C21.0611 9.04444 21.1667 8.71111 21.1667 8.33333C21.1667 7.86667 21.0056 7.47222 20.6833 7.15C20.3611 6.82778 19.9667 6.66667 19.5 6.66667C19.0333 6.66667 18.6389 6.82778 18.3167 7.15C17.9944 7.47222 17.8333 7.86667 17.8333 8.33333ZM15.1667 23.6667V8.33333C15.1667 7.86667 15.0056 7.47222 14.6833 7.15C14.3611 6.82778 13.9667 6.66667 13.5 6.66667C13.0333 6.66667 12.6389 6.82778 12.3167 7.15C11.9944 7.47222 11.8333 7.86667 11.8333 8.33333C11.8333 8.68889 11.9333 9.01667 12.1333 9.31667C12.3333 9.61667 12.6 9.82222 12.9333 9.93333C13.2889 10.0444 13.5444 10.2667 13.7 10.6C13.8556 10.9333 13.8778 11.2778 13.7667 11.6333C13.6333 11.9889 13.4 12.2444 13.0667 12.4C12.7333 12.5556 12.3889 12.5667 12.0333 12.4333C11.5667 12.2556 11.1389 12.0167 10.75 11.7167C10.3611 11.4167 10.0444 11.0667 9.8 10.6667C9.08889 10.6889 8.47222 10.9611 7.95 11.4833C7.42778 12.0056 7.16667 12.6222 7.16667 13.3333C7.16667 14.0667 7.42778 14.6944 7.95 15.2167C8.47222 15.7389 9.1 16 9.83333 16C10.2111 16 10.5278 16.1278 10.7833 16.3833C11.0389 16.6389 11.1667 16.9556 11.1667 17.3333C11.1667 17.7111 11.0389 18.0278 10.7833 18.2833C10.5278 18.5389 10.2111 18.6667 9.83333 18.6667C9.36667 18.6667 8.91667 18.6111 8.48333 18.5C8.05 18.3889 7.64444 18.2222 7.26667 18C7.22222 18.1111 7.19444 18.2222 7.18333 18.3333C7.17222 18.4444 7.16667 18.5556 7.16667 18.6667C7.16667 19.4 7.42778 20.0278 7.95 20.55C8.47222 21.0722 9.1 21.3333 9.83333 21.3333C10.2778 21.3333 10.6889 21.2389 11.0667 21.05C11.4444 20.8611 11.7556 20.5889 12 20.2333C12.2222 19.9222 12.5111 19.7389 12.8667 19.6833C13.2222 19.6278 13.5556 19.7111 13.8667 19.9333C14.1778 20.1556 14.3611 20.4444 14.4167 20.8C14.4722 21.1556 14.3889 21.4889 14.1667 21.8C13.8556 22.2222 13.5 22.5889 13.1 22.9C12.7 23.2111 12.2667 23.4556 11.8 23.6333C11.8222 24.0778 12 24.4722 12.3333 24.8167C12.6667 25.1611 13.0556 25.3333 13.5 25.3333C13.9667 25.3333 14.3611 25.1722 14.6833 24.85C15.0056 24.5278 15.1667 24.1333 15.1667 23.6667Z" fill="#CDCDCD"/>
</svg>
