<svg width="32" height="33" viewBox="0 0 32 33" fill="none" xmlns="http://www.w3.org/2000/svg">
<path d="M15.9999 4.47778L30.6666 15.4334L29.3776 17.1891L26.6666 15.1445V28.5001H5.33325V15.1445L2.62225 17.1891L1.33325 15.4334L15.9999 4.47778ZM10.1556 16.5668C10.1556 17.6706 10.7518 18.8964 11.9443 20.2444C13.1369 21.5927 14.4888 22.9446 15.9999 24.3001C17.511 22.9446 18.8629 21.5927 20.0556 20.2444C21.248 18.8964 21.8443 17.6706 21.8443 16.5668C21.8443 15.663 21.5443 14.9149 20.9443 14.3224C20.3443 13.7298 19.5998 13.4334 18.7109 13.4334C18.1776 13.4334 17.6758 13.5576 17.2056 13.8058C16.7351 14.0538 16.3333 14.3593 15.9999 14.7224C15.6666 14.3593 15.261 14.0538 14.7833 13.8058C14.3055 13.5576 13.8074 13.4334 13.2889 13.4334C12.4 13.4334 11.6556 13.7298 11.0556 14.3224C10.4556 14.9149 10.1556 15.663 10.1556 16.5668ZM24.4443 26.2778V13.5668L15.9999 7.25578L7.55559 13.5668V26.2778H24.4443Z" fill="#E3E3E3"/>
</svg>
