<svg width="32" height="33" viewBox="0 0 32 33" fill="none" xmlns="http://www.w3.org/2000/svg">
<path d="M20.6667 15.1667C21.2223 15.1667 21.6945 14.9723 22.0834 14.5834C22.4723 14.1945 22.6667 13.7223 22.6667 13.1667C22.6667 12.6112 22.4723 12.139 22.0834 11.7501C21.6945 11.3612 21.2223 11.1667 20.6667 11.1667C20.1112 11.1667 19.639 11.3612 19.2501 11.7501C18.8612 12.139 18.6667 12.6112 18.6667 13.1667C18.6667 13.7223 18.8612 14.1945 19.2501 14.5834C19.639 14.9723 20.1112 15.1667 20.6667 15.1667ZM11.3334 15.1667C11.889 15.1667 12.3612 14.9723 12.7501 14.5834C13.139 14.1945 13.3334 13.7223 13.3334 13.1667C13.3334 12.6112 13.139 12.139 12.7501 11.7501C12.3612 11.3612 11.889 11.1667 11.3334 11.1667C10.7779 11.1667 10.3056 11.3612 9.91675 11.7501C9.52786 12.139 9.33341 12.6112 9.33341 13.1667C9.33341 13.7223 9.52786 14.1945 9.91675 14.5834C10.3056 14.9723 10.7779 15.1667 11.3334 15.1667ZM16.0001 23.8334C17.5112 23.8334 18.8834 23.4056 20.1167 22.5501C21.3501 21.6945 22.2445 20.5667 22.8001 19.1667H20.6001C20.1112 19.989 19.4612 20.639 18.6501 21.1167C17.839 21.5945 16.9556 21.8334 16.0001 21.8334C15.0445 21.8334 14.1612 21.5945 13.3501 21.1167C12.539 20.639 11.889 19.989 11.4001 19.1667H9.20008C9.75564 20.5667 10.6501 21.6945 11.8834 22.5501C13.1167 23.4056 14.489 23.8334 16.0001 23.8334ZM16.0001 29.8334C14.1556 29.8334 12.4223 29.4834 10.8001 28.7834C9.17786 28.0834 7.76675 27.1334 6.56675 25.9334C5.36675 24.7334 4.41675 23.3223 3.71675 21.7001C3.01675 20.0779 2.66675 18.3445 2.66675 16.5001C2.66675 14.6556 3.01675 12.9223 3.71675 11.3001C4.41675 9.67786 5.36675 8.26675 6.56675 7.06675C7.76675 5.86675 9.17786 4.91675 10.8001 4.21675C12.4223 3.51675 14.1556 3.16675 16.0001 3.16675C17.8445 3.16675 19.5779 3.51675 21.2001 4.21675C22.8223 4.91675 24.2334 5.86675 25.4334 7.06675C26.6334 8.26675 27.5834 9.67786 28.2834 11.3001C28.9834 12.9223 29.3334 14.6556 29.3334 16.5001C29.3334 18.3445 28.9834 20.0779 28.2834 21.7001C27.5834 23.3223 26.6334 24.7334 25.4334 25.9334C24.2334 27.1334 22.8223 28.0834 21.2001 28.7834C19.5779 29.4834 17.8445 29.8334 16.0001 29.8334ZM16.0001 27.1667C18.9779 27.1667 21.5001 26.1334 23.5667 24.0667C25.6334 22.0001 26.6667 19.4779 26.6667 16.5001C26.6667 13.5223 25.6334 11.0001 23.5667 8.93341C21.5001 6.86675 18.9779 5.83341 16.0001 5.83341C13.0223 5.83341 10.5001 6.86675 8.43341 8.93341C6.36675 11.0001 5.33341 13.5223 5.33341 16.5001C5.33341 19.4779 6.36675 22.0001 8.43341 24.0667C10.5001 26.1334 13.0223 27.1667 16.0001 27.1667Z" fill="#E3E3E3"/>
</svg>
